<svg width="99" height="15" viewBox="0 0 99 15" fill="none" xmlns="http://www.w3.org/2000/svg">
<g clip-path="url(#clip0_3619_71465)">
<path fill-rule="evenodd" clipRule="evenodd" d="M85.6728 9.69986C86.7318 11.5443 88.74 12.8271 90.3905 13.0555C90.5108 13.1354 90.6369 13.2016 90.7679 13.2546C89.3884 13.1906 87.8412 12.298 86.9775 11.535C84.7856 9.59847 84.1847 6.86821 85.703 5.08614C87.3372 3.16857 89.5734 3.2908 91.4354 4.90372C91.4023 4.93023 91.3691 4.95708 91.336 4.98441C90.242 4.00839 88.8616 3.58769 87.5764 3.99397C85.8365 4.5438 84.7845 6.25226 85.0542 7.9783C85.1339 8.48971 85.3794 9.18869 85.6728 9.69986Z" fill="#2E2E2E" stroke="#2E2E2E" strokeWidth="1" strokeMiterlimit="22.9256"/>
<path fill-rule="evenodd" clipRule="evenodd" d="M96.99 9.87274C95.7243 12.077 93.1028 13.4796 91.3564 13.2381C89.0346 12.9171 88.9806 9.51925 89.6954 7.59461C90.6442 5.03883 92.9917 3.50464 95.0866 4.16678C96.8263 4.71669 97.8783 6.42508 97.6089 8.15111C97.5289 8.66252 97.2836 9.36159 96.99 9.87274ZM90.6659 5.62086C88.8523 7.57635 88.7985 10.781 89.6714 12.275C91.0077 14.5618 94.2677 12.9603 95.6853 11.7079C97.8774 9.77129 98.4784 7.04111 96.9598 5.25894C95.1578 3.14429 92.6233 3.51031 90.6659 5.62086Z" fill="#2E2E2E" stroke="#2E2E2E" strokeWidth="1" strokeMiterlimit="22.9256"/>
<path d="M93.3046 9.28428L93.2887 9.70055H91.6785C91.6939 9.3559 91.7018 8.92269 91.7018 8.40086C91.7018 7.92199 91.6939 7.52722 91.6785 7.21582H92.223C92.2077 7.50446 92.1999 7.8998 92.1999 8.40086C92.1999 8.78396 92.1912 9.08811 92.1748 9.31289C92.5314 9.31289 92.9077 9.30312 93.3046 9.28428Z" fill="#2E2E2E" stroke="#2E2E2E" strokeWidth="0.288" strokeMiterlimit="22.9256"/>
<path d="M88.6611 7.10938L88.6472 7.51905C88.3887 7.50021 88.145 7.49046 87.917 7.49046C87.9143 7.73082 87.913 7.99927 87.913 8.29442C87.913 8.75238 87.9202 9.18557 87.934 9.5941H87.3918C87.4081 9.1895 87.4169 8.75631 87.4169 8.29442C87.4169 8.00446 87.4142 7.73607 87.4088 7.49046C87.2269 7.49046 86.977 7.50088 86.6587 7.52106L86.6746 7.10938H88.6611Z" fill="#2E2E2E" stroke="#2E2E2E" strokeWidth="0.288" strokeMiterlimit="22.9256"/>
<path fill-rule="evenodd" clipRule="evenodd" d="M97.5404 4.46238C97.522 4.13822 97.6244 3.77981 97.8166 3.64834C97.9917 3.52854 98.5067 3.44824 98.7615 3.48169L98.9642 3.47008L98.5974 3.43699C98.3143 3.46759 97.9086 3.37671 97.753 3.22355C97.5933 3.06614 97.5095 2.66604 97.5341 2.37901C97.5373 2.30222 97.5408 2.16014 97.4985 2.09277L97.4958 2.21884C97.5205 2.57035 97.4392 3.11218 97.2244 3.26374C96.9863 3.43181 96.4496 3.46117 96.1067 3.46642C96.4563 3.48001 96.9648 3.47335 97.2085 3.65167C97.4367 3.81883 97.5128 4.27121 97.4913 4.6368L97.5016 4.8368C97.5417 4.75585 97.5458 4.57051 97.5404 4.46238Z" fill="#2E2E2E"/>
<path d="M6.10835 12.0994L5.99362 13.3296C5.48865 13.5137 5.01325 13.6041 4.56406 13.6041C3.40997 13.6041 2.62303 13.3135 2.20009 12.7355C1.77715 12.1575 1.56399 11.1274 1.56399 9.6388C1.56399 8.67326 1.57051 7.41719 1.58363 5.86396C1.22631 5.86396 0.6984 5.8834 0 5.92207L0.0557881 4.54977C0.665641 4.58528 1.20988 4.60463 1.69182 4.60463C1.69182 4.22678 1.72467 3.32912 1.78697 1.90838L3.29518 1.75982C3.18699 3.08376 3.1312 4.03312 3.1312 4.60463C3.75748 4.60463 4.68207 4.57237 5.89847 4.51101L5.82964 5.92207C4.67878 5.8834 3.75418 5.86396 3.05585 5.86396C3.04275 6.81657 3.03614 7.88857 3.03614 9.08012C3.03614 10.3815 3.17387 11.2404 3.45255 11.657C3.73123 12.0768 4.24932 12.2866 5.00342 12.2866C5.25587 12.2866 5.62309 12.2252 6.10835 12.0994ZM9.64282 13.4039H7.90513C7.99367 12.1413 8.03956 10.7011 8.03956 9.08012C8.03956 7.2557 7.92806 5.72832 7.70186 4.49157L9.6232 4.23655C9.54777 5.55399 9.50841 7.16848 9.50841 9.08012C9.50841 10.5946 9.55437 12.0347 9.64282 13.4039ZM10.0461 1.57898C10.0461 1.89863 9.94124 2.17959 9.72807 2.41529C9.51831 2.65105 9.2199 2.77052 8.83633 2.77052C8.50838 2.77052 8.25264 2.66715 8.07233 2.46373C7.88871 2.2603 7.79695 2.01168 7.79695 1.72105C7.79695 1.40465 7.90513 1.13011 8.12481 0.897666C8.34449 0.665142 8.64281 0.548921 9.02647 0.548921C9.34121 0.548921 9.59044 0.652218 9.77406 0.855646C9.95436 1.05907 10.0461 1.30127 10.0461 1.57898ZM19.171 11.9573L19.0726 13.223C18.5545 13.5137 17.8595 13.659 16.9906 13.659C15.3315 13.659 14.0627 13.2069 13.1839 12.306C12.3085 11.4051 11.8692 10.3169 11.8692 9.04136C11.8692 7.69165 12.3315 6.53237 13.2528 5.56041C14.1741 4.58846 15.3939 4.10415 16.9119 4.10415C17.6759 4.10415 18.2955 4.17843 18.7742 4.33017L18.5152 5.81552C17.8431 5.57016 17.1611 5.44745 16.4693 5.44745C15.561 5.44745 14.8365 5.76066 14.2988 6.38387C13.761 7.00707 13.4922 7.79177 13.4922 8.73137C13.4922 9.75176 13.8134 10.6042 14.4528 11.2856C15.0922 11.967 16.0004 12.306 17.1709 12.306C17.6528 12.306 18.3185 12.1897 19.171 11.9573ZM29.2991 13.4039H27.0434C27.0434 13.1811 26.4236 12.3415 25.1809 10.8787C23.9054 9.37076 23.1055 8.6184 22.7776 8.6184H22.712C22.712 9.96812 22.7481 11.5633 22.817 13.4039H21.125C21.2071 11.0951 21.2497 8.74429 21.2497 6.34511C21.2497 3.90715 21.1579 1.82118 20.971 0.093626L22.817 0C22.7481 1.35938 22.712 4.00727 22.712 7.93701H22.7776C22.9906 7.93701 23.6529 7.40426 24.7711 6.34185C25.8892 5.27954 26.4464 4.6369 26.4464 4.41737H28.5711C28.5711 4.62082 28.0694 5.14388 27.0628 5.9867C26.1219 6.77455 25.2596 7.42361 24.4792 7.93701V8.0113C25.2728 8.60224 26.2923 9.61937 27.5417 11.0564C28.712 12.4126 29.2991 13.1939 29.2991 13.4039ZM38.5484 7.84988C38.5484 8.11467 38.5352 8.4795 38.509 8.94772L31.912 9.06077C31.9745 9.98104 32.3383 10.7528 32.9975 11.376C33.6564 11.996 34.5286 12.306 35.6205 12.306C36.5942 12.306 37.5058 12.1897 38.3549 11.9573L38.1943 13.2908C37.568 13.5363 36.6598 13.659 35.4763 13.659C33.8105 13.659 32.5417 13.2101 31.6663 12.3157C30.7908 11.4212 30.3547 10.3298 30.3547 9.04136C30.3547 7.66906 30.7547 6.48393 31.5514 5.48938C32.3481 4.49808 33.4203 4.00076 34.7647 4.00076C36.0008 4.00076 36.9384 4.35918 37.5844 5.07926C38.227 5.79935 38.5484 6.72296 38.5484 7.84988ZM36.9451 7.86922C36.9451 6.09649 36.191 5.21166 34.6861 5.21166C33.1482 5.21166 32.2433 6.132 31.968 7.97252L36.9451 7.86922ZM46.0305 12.0994L45.9158 13.3296C45.4108 13.5137 44.9355 13.6041 44.4862 13.6041C43.3322 13.6041 42.5451 13.3135 42.1223 12.7355C41.6994 12.1575 41.4862 11.1274 41.4862 9.6388C41.4862 8.67326 41.4927 7.41719 41.5059 5.86396C41.1484 5.86396 40.6205 5.8834 39.9221 5.92207L39.9779 4.54977C40.5878 4.58528 41.132 4.60463 41.6141 4.60463C41.6141 4.22678 41.6467 3.32912 41.7092 1.90838L43.2173 1.75982C43.1091 3.08376 43.0534 4.03312 43.0534 4.60463C43.6796 4.60463 44.6042 4.57237 45.8207 4.51101L45.7519 5.92207C44.6008 5.8834 43.6763 5.86396 42.9781 5.86396C42.9649 6.81657 42.9584 7.88857 42.9584 9.08012C42.9584 10.3815 43.0961 11.2404 43.3748 11.657C43.6534 12.0768 44.1715 12.2866 44.9256 12.2866C45.178 12.2866 45.5454 12.2252 46.0305 12.0994ZM49.6799 13.4039H47.8372C47.9518 11.3212 48.0076 8.97031 48.0076 6.34511C48.0076 3.79734 47.9158 1.71463 47.729 0.093626L49.6799 0C49.5585 1.71463 49.4962 3.8297 49.4962 6.34511C49.4962 8.93806 49.5585 11.2921 49.6799 13.4039ZM60.4276 13.3942L58.939 13.4523C58.8504 13.1003 58.8044 12.8097 58.8044 12.5805H58.7095C57.857 13.2877 56.8242 13.6396 55.6078 13.6396C54.4995 13.6396 53.6929 13.378 53.1912 12.8517C52.6897 12.3254 52.4371 11.263 52.4371 9.66781C52.4371 9.43853 52.4438 9.10271 52.4568 8.65392C52.47 8.20504 52.4765 7.90149 52.4765 7.73682C52.4765 6.81007 52.4207 5.71864 52.3125 4.46257L54.0995 4.39796C54.024 5.61536 53.9848 6.65508 53.9848 7.52047C53.9848 9.5064 54.1127 10.8013 54.3716 11.4019C54.6308 12.0056 55.2176 12.306 56.1258 12.306C57.1519 12.306 57.9947 12.0541 58.6602 11.5504C58.6602 8.04364 58.6275 5.67988 58.5652 4.46257L60.293 4.39796C60.244 5.58309 60.2178 7.22343 60.2178 9.3159C60.2178 10.6592 60.2865 12.0186 60.4276 13.3942ZM68.9654 10.84C68.9654 12.6838 67.772 13.6041 65.3819 13.6041C64.326 13.6041 63.3392 13.5008 62.4242 13.2908L62.7228 11.8991C63.5555 12.2156 64.4571 12.3738 65.4309 12.3738C66.8277 12.3738 67.5261 11.983 67.5261 11.1984C67.5261 10.8206 67.372 10.5203 67.0604 10.2975C66.7488 10.0747 66.2344 9.82279 65.5163 9.5451C64.608 9.19317 63.9489 8.85084 63.5392 8.52152C62.9358 8.03713 62.6341 7.44944 62.6341 6.76163C62.6341 6.04154 62.9096 5.42801 63.4604 4.91462C64.0111 4.4012 64.8506 4.14282 65.9786 4.14282C67.0801 4.14282 67.9655 4.23329 68.631 4.41737L68.3326 5.78001C67.6407 5.50879 66.8375 5.37315 65.9293 5.37315C64.6999 5.37315 64.0866 5.7219 64.0866 6.42265C64.0866 6.77455 64.2243 7.06193 64.4998 7.27829C64.7751 7.49464 65.3129 7.75943 66.113 8.0694C66.9753 8.40205 67.6179 8.73137 68.0343 9.05111C68.654 9.55158 68.9654 10.1457 68.9654 10.84ZM79.241 13.4039H77.4935C77.6344 11.7441 77.7034 9.95843 77.7034 8.05006C77.7034 7.02642 77.5098 6.33869 77.123 5.98343C76.736 5.62502 76.1984 5.44745 75.513 5.44745C74.5524 5.44745 73.654 5.77359 72.8147 6.42265C72.8147 9.86482 72.8409 12.193 72.8933 13.4039H71.2016C71.2574 11.7409 71.2867 9.38693 71.2867 6.34511C71.2867 3.68437 71.1951 1.60157 71.0081 0.093626L72.8344 0C72.7852 1.92131 72.759 3.70696 72.759 5.35381H72.8147C73.7754 4.52067 74.831 4.10415 75.9753 4.10415C77.0016 4.10415 77.8017 4.33985 78.3755 4.80805C78.9525 5.27954 79.241 6.1029 79.241 7.28153C79.241 7.401 79.2345 7.6367 79.2213 7.98869C79.2083 8.33744 79.2018 8.64426 79.2018 8.90896C79.2018 9.81637 79.2148 11.3147 79.241 13.4039Z" fill="#2E2E2E"/>
</g>
<defs>
<clipPath id="clip0_3619_71465">
<rect width="99" height="15" fill="white"/>
</clipPath>
</defs>
</svg>
